<?xml version="1.0" standalone="no"?>
<!DOCTYPE svg PUBLIC "-//W3C//DTD SVG 1.1//EN" "http://www.w3.org/Graphics/SVG/1.1/DTD/svg11.dtd" >
<svg xmlns="http://www.w3.org/2000/svg">
<metadata>
This is a custom SVG webfont generated by Font Squirrel.
Copyright   : Copyright c 1985 1987 1991 1993 1997 Adobe Systems Incorporated  All Rights ReservedHelvetica is a trademark of LinotypeHell AG andor its subsidiaries
</metadata>
<defs>
<font id="HelveticaCondensedBlack" horiz-adv-x="1024" >
<font-face units-per-em="2048" ascent="1638" descent="-410" />
<missing-glyph horiz-adv-x="512" />
<glyph unicode=" "  horiz-adv-x="512" />
<glyph unicode="&#x09;" horiz-adv-x="512" />
<glyph unicode="&#xa0;" horiz-adv-x="512" />
<glyph unicode="!" horiz-adv-x="681" d="M162 1149l88 -655h184l88 655v387h-360v-387zM170 0h346v350h-346v-350z" />
<glyph unicode="&#x22;" horiz-adv-x="681" d="M33 958h243v555h-243v-555zM408 958h243v555h-243v-555z" />
<glyph unicode="#" d="M18 455h189l-62 -455h185l61 455h174l-59 -455h178l61 455h207v233h-174l25 193h203v235h-170l57 420h-184l-56 -420h-176l55 420h-178l-57 -420h-221v-235h192l-28 -193h-222v-233zM422 688l24 193h177l-25 -193h-176z" />
<glyph unicode="$" d="M29 440q0 -217 87 -326.5t296 -144.5v-227h180v225q193 14 296 126t103 302q0 104 -30.5 181t-86 130.5t-126 92.5t-179.5 84v358q68 -8 98.5 -65.5t30.5 -133.5h287q0 184 -101.5 300t-275.5 133v135h-180v-135q-78 -4 -147.5 -35t-123 -83t-84 -122t-30.5 -150 q0 -104 29.5 -180t82 -132t122 -98t174.5 -91v-383q-47 14 -75 36.5t-40 49t-14.5 49t-4.5 57.5q0 37 -4 47h-284zM332 1102q0 63 32.5 93t100.5 50v-311q-59 16 -96 61.5t-37 106.5zM555 205v342q86 -43 109.5 -68.5t27.5 -58.5q4 -20 10 -35q0 -2 3 -12v-13 q0 -59 -43.5 -101t-106.5 -54z" />
<glyph unicode="%" horiz-adv-x="1705" d="M49 1126q0 -193 72 -288t256 -95q102 0 167.5 29t100.5 80t47.5 118.5t12.5 155.5q0 199 -75 290t-253 91q-174 0 -251 -100.5t-77 -280.5zM295 1053q0 18 2 37v38v25v35q0 59 15.5 96t64.5 37t65.5 -35t16.5 -90q0 -14 -2 -39v-29q0 -100 -15.5 -149t-64.5 -49t-65.5 32 t-16.5 91zM426 -37h172l688 1573h-168zM1004 375q0 -193 71.5 -288t255.5 -95q102 0 168 28.5t100.5 80t47 119t12.5 155.5q0 193 -73 287t-255 94q-174 0 -250.5 -100.5t-76.5 -280.5zM1249 303q0 18 2 37v39v24v35q0 57 15.5 94t64.5 37t65.5 -33.5t16.5 -89.5 q0 -14 -2 -38v-29q0 -102 -15.5 -151.5t-64.5 -49.5t-65.5 33t-16.5 92z" />
<glyph unicode="&#x26;" horiz-adv-x="1366" d="M96 420q0 -209 127 -333t334 -124q197 0 342 125l55 -88h367l-211 332q61 121 98 242.5t39 242.5h-264l-4 -20q-20 -121 -37 -197h-4q-37 66 -115 182q-29 43 -51 78q119 61 189.5 157.5t70.5 221.5q0 160 -107.5 247t-269.5 87q-72 0 -142.5 -20.5t-128.5 -60.5 t-93 -101.5t-35 -139.5q0 -94 33 -181t92 -161q-137 -84 -211 -207.5t-74 -281.5zM416 438q0 78 23.5 128t80.5 112l240 -371q-41 -31 -79 -48t-75 -19q-80 0 -135 58t-55 140zM541 1253q0 39 25.5 67t64.5 28q104 0 104 -107q0 -43 -33.5 -97t-74.5 -75q-37 33 -61.5 85 t-24.5 99z" />
<glyph unicode="'" horiz-adv-x="512" d="M135 958h244v555h-244v-555z" />
<glyph unicode="(" horiz-adv-x="569" d="M49 610q0 -160 13.5 -281.5t41 -228t66.5 -211t111 -272.5h256q-90 217 -133.5 456.5t-43.5 489.5q0 264 40 507t128 466h-247q-115 -242 -173.5 -463t-58.5 -463z" />
<glyph unicode=")" horiz-adv-x="569" d="M33 1536q90 -217 133 -456.5t43 -489.5q0 -264 -40 -507t-128 -466h248q115 242 173 463t58 463q0 160 -13 281.5t-41 228t-67 211t-110 272.5h-256z" />
<glyph unicode="*" d="M131 1192l234 -68l-158 -202l160 -111l145 205l158 -211l151 119l-159 206l233 72l-61 189l-224 -86v231h-190v-238l-227 78z" />
<glyph unicode="+" d="M53 393h342v-393h236v393h342v236h-342v379h-236v-379h-342v-236z" />
<glyph unicode="," horiz-adv-x="681" d="M168 0h186q-6 -96 -53 -145q-47 -55 -133 -58v-116q160 12 253 88.5t93 228.5v352h-346v-350z" />
<glyph unicode="-" horiz-adv-x="681" d="M88 485h508v308h-508v-308z" />
<glyph unicode="." horiz-adv-x="681" d="M168 0h346v350h-346v-350z" />
<glyph unicode="/" horiz-adv-x="569" d="M-57 -193h219l467 1729h-226z" />
<glyph unicode="0" d="M57 387q0 -217 116 -320.5t337 -103.5q254 0 355.5 118t101.5 380v553q0 279 -97.5 400.5t-355.5 121.5q-225 0 -341 -104.5t-116 -329.5v-715zM399 412v690q0 84 20.5 131t94.5 47q37 0 59.5 -16.5t33.5 -43t14.5 -55t3.5 -63.5v-690q0 -37 -3.5 -68t-13.5 -59.5 t-33.5 -46t-60.5 -19.5q-41 0 -64.5 16.5t-35 43t-13.5 57.5t-2 76z" />
<glyph unicode="1" d="M76 1036h313v-1036h326v1503h-232q-12 -63 -52 -108t-97.5 -73t-123 -39t-134.5 -11v-236z" />
<glyph unicode="2" d="M47 0h920v276h-531q6 31 29.5 68t55.5 75t61.5 68.5t56.5 57.5l133 129q102 109 147.5 205t45.5 235q0 209 -117 315.5t-328 106.5q-229 0 -350 -123t-121 -352v-80h326v74q0 37 4 73.5t15.5 69.5t36 56.5t63.5 25.5q68 0 98.5 -44t30.5 -108q0 -84 -21.5 -141 t-77.5 -119l-155 -163q-145 -160 -233.5 -320t-88.5 -334v-51z" />
<glyph unicode="3" d="M39 494l2 -105q12 -207 123.5 -316.5t320.5 -109.5q229 0 352.5 112.5t123.5 340.5q0 139 -56.5 242.5t-187.5 136.5v4q109 51 158 134t49 208q0 203 -116 299t-323 96q-80 0 -158.5 -25.5t-142 -75t-102.5 -118t-41 -152.5l-2 -112h328q0 18 2 30q0 41 3 72t13 58.5 t32.5 45t59.5 17.5q68 0 94.5 -42t26.5 -116q0 -47 -16.5 -98t-49.5 -74t-71.5 -30t-102.5 -9q-31 -2 -36 -2v-246q20 -2 63 -2q53 0 89 -4t67 -22q45 -27 61 -87.5t16 -127.5q0 -39 -4 -73t-17 -61.5t-39 -45t-64 -17.5q-45 0 -71 20.5t-38 53.5t-15 65.5t-5 87.5 q-2 33 -3 48h-323z" />
<glyph unicode="4" d="M18 293h512v-293h326v293h135v256h-135v954h-358l-480 -923v-287zM276 549l250 498h4v-498h-254z" />
<glyph unicode="5" d="M61 336q37 -190 139.5 -281.5t297.5 -91.5q133 0 224 37t145.5 107.5t78 169t23.5 227.5q0 111 -14.5 202t-54.5 165.5t-114.5 118.5t-189.5 44q-70 0 -127 -22.5t-113 -71.5l15 287h534v276h-794l-39 -837h301q10 113 121 112q45 0 71.5 -23.5t39.5 -65.5t17.5 -93 t4.5 -123q0 -45 -3 -82t-15.5 -78t-41 -67.5t-75.5 -26.5q-33 4 -54.5 22.5t-31 45t-12.5 52.5t-7 71q0 33 -2 43h-324v-117z" />
<glyph unicode="6" d="M55 504q0 -121 22.5 -218.5t73 -170t137.5 -112.5t212 -40q139 0 231 39t144.5 111.5t74 175t21.5 239.5q0 94 -15.5 175t-52.5 145.5t-104.5 102.5t-167.5 38q-78 0 -125 -15.5t-109 -60.5v103q0 137 21.5 200.5t91.5 63.5q66 0 90 -41q23 -33 23 -100h325 q-8 221 -121.5 309t-345.5 88q-137 0 -224 -50t-130 -137t-57.5 -193.5t-14.5 -246.5v-405zM397 352v226q2 70 25.5 112.5t85.5 42.5q66 0 93.5 -45t27.5 -115v-153q0 -84 -25.5 -142.5t-91.5 -58.5q-57 0 -86 38t-29 95z" />
<glyph unicode="7" d="M49 1227h561l-159 -357q-35 -78 -76 -192.5t-79 -244.5t-60.5 -244.5t-22.5 -188.5h354q18 156 38 274.5t52 243.5q55 213 121 392.5t156 336.5v256h-885v-276z" />
<glyph unicode="8" d="M59 436q0 -223 112 -348t310 -125q246 0 365 112.5t119 360.5q0 141 -40 222t-155 149v4q98 49 142 132t44 190q0 201 -118.5 302t-327.5 101q-205 0 -323.5 -102.5t-118.5 -300.5q0 -115 42 -192t138 -130v-4q-61 -41 -99 -81t-57.5 -83t-26 -90t-6.5 -117zM385 444 q0 121 22.5 177.5t98.5 56.5q45 0 72.5 -20.5t41 -53.5t16.5 -68.5t3 -84.5q0 -53 -3 -90t-15.5 -71t-39 -55.5t-71.5 -21.5q-43 0 -68.5 22.5t-38 58.5t-15.5 70.5t-3 79.5zM393 1100q0 86 24.5 137t98.5 51q66 0 92.5 -54t26.5 -126q0 -80 -27.5 -132t-99.5 -52 q-66 0 -90.5 51t-24.5 125z" />
<glyph unicode="9" d="M55 971q0 -94 15.5 -175t52.5 -145.5t104.5 -102.5t167.5 -38q78 0 125 15.5t109 60.5v-103q0 -137 -21.5 -200.5t-91.5 -63.5q-63 0 -90 41q-18 29 -23 100h-325q8 -221 121.5 -309t345.5 -88q137 0 224 50t130 137.5t57.5 194t14.5 245.5v405q0 121 -22.5 218.5 t-73 170t-137.5 112.5t-212 40q-139 0 -231 -39t-144.5 -111.5t-74 -175t-21.5 -239.5zM397 1008q0 61 3 105t15.5 83t36 61.5t62.5 22.5q70 0 94.5 -53t24.5 -142q0 -18 -2 -49v-39q0 -117 -20.5 -174t-92.5 -57q-78 0 -99.5 60.5t-21.5 181.5z" />
<glyph unicode=":" horiz-adv-x="569" d="M113 0h346v350h-346v-350zM113 786h346v351h-346v-351z" />
<glyph unicode=";" horiz-adv-x="569" d="M113 0h186q-6 -96 -53 -145q-47 -55 -133 -58v-116q160 12 253 88.5t93 228.5v352h-346v-350zM113 786h346v351h-346v-351z" />
<glyph unicode="&#x3c;" d="M86 414l854 -461v227l-608 332l608 342v227l-854 -465v-202z" />
<glyph unicode="=" d="M53 195h920v235h-920v-235zM53 594h920v235h-920v-235z" />
<glyph unicode="&#x3e;" d="M86 -47l854 461v202l-854 465v-227l608 -342l-608 -332v-227z" />
<glyph unicode="?" d="M43 1087h326q0 47 3 80t14 63t37 48t69 18q57 0 85.5 -37.5t28.5 -97.5q0 -39 -18.5 -84t-47 -89t-55 -79t-71.5 -88q-25 -29 -35 -41q-31 -51 -41 -115.5t-10 -172.5h309l2 18q6 68 16.5 104.5t42.5 83.5q31 41 95 119q20 25 38 47q68 82 102 156t34 164q0 102 -37 176 t-101.5 121t-148.5 69.5t-182 22.5q-207 0 -331 -130.5t-124 -355.5zM305 0h348l-2 350h-346v-350z" />
<glyph unicode="@" horiz-adv-x="1699" d="M76 774q0 -172 63.5 -320.5t177 -259t265 -171t319.5 -60.5q193 0 354.5 90t278.5 250h-197q-94 -86 -199.5 -136t-219.5 -50q-141 0 -266.5 46t-219.5 134t-146.5 210t-52.5 267q0 139 48.5 258t135.5 207t206.5 136t259.5 48q260 0 421.5 -148.5t161.5 -408.5 q-2 -68 -24.5 -138.5t-46.5 -104.5q-33 -47 -74 -85t-66 -46q-2 0 -6 -3h-8q-29 0 -29 31q0 2 2 6v9l109 630h-201l-22 -108q-88 125 -260 125q-96 0 -177 -40t-138.5 -108.5t-88 -157t-30.5 -182.5q0 -162 94 -269.5t252 -107.5q121 0 252 125l4 -4q0 -6 -2 -16v-12 q0 -45 26.5 -73t61.5 -28q43 0 95 15.5t102 42t96.5 59.5t74.5 63q86 88 125 197t39 240q0 141 -62.5 261t-174.5 214q-102 88 -229.5 130t-270.5 42q-168 0 -316.5 -59.5t-260 -168t-174 -256t-62.5 -315.5zM631 731q6 100 72.5 176t158.5 84q86 0 128 -57t42 -146l-2 -14 v-16q-8 -92 -69.5 -172t-155.5 -80h-14q-8 2 -15 2q-66 10 -105.5 65.5t-39.5 157.5z" />
<glyph unicode="A" horiz-adv-x="1138" d="M18 0h363l43 299h283l51 -299h364l-334 1536h-434zM463 569l104 688h4l101 -688h-209z" />
<glyph unicode="B" horiz-adv-x="1138" d="M90 0h508q227 0 348 108.5t121 335.5q0 74 -8 127.5t-29.5 93.5t-59.5 74.5t-102 71.5v4q90 49 132 133t42 191q0 113 -35.5 190.5t-101 122.5t-152.5 64.5t-196 19.5h-467v-1536zM451 276v379h20q66 -2 104.5 -7t68.5 -22.5t46.5 -53t16.5 -97.5q0 -72 -12.5 -111.5 t-39 -58t-61.5 -22.5t-111 -7h-32zM451 932v328q127 0 179 -25t52 -121q0 -117 -41 -145.5t-158 -34.5q-22 -2 -32 -2z" />
<glyph unicode="C" horiz-adv-x="1138" d="M80 453q0 -242 109.5 -366t351.5 -124q266 0 393 120t127 329v188h-361v-139q0 -43 -4 -80t-17 -68.5t-41 -52t-71 -20.5q-68 0 -98.5 34.5t-30.5 102.5l2 760q0 82 30 120.5t110 38.5q53 0 83.5 -51t30.5 -147v-99h361v129q0 229 -127 337t-365 108q-248 0 -365.5 -120 t-117.5 -370v-630z" />
<glyph unicode="D" horiz-adv-x="1138" d="M94 0h486q98 0 176 14.5t143 57.5q152 94 154 331v682q0 131 -33 227.5t-129 151.5q-78 45 -176.5 58.5t-229.5 13.5h-391v-1536zM455 276v984q76 -2 117.5 -8.5t68.5 -25t39 -56t12 -105.5v-502v-41q2 -18 2 -35q0 -115 -36.5 -164t-153.5 -49q-8 0 -23 2h-26z" />
<glyph unicode="E" d="M94 0h850v307h-489v332h450v307h-450v283h465v307h-826v-1536z" />
<glyph unicode="F" d="M100 0h361v649h448v307h-448v273h487v307h-848v-1536z" />
<glyph unicode="G" horiz-adv-x="1138" d="M68 453q0 -109 20.5 -197t68.5 -154.5t125.5 -102.5t188.5 -36q119 0 187.5 38t123.5 134h4l17 -137h246v836h-490v-277h129v-121q0 -47 -3 -78.5t-15.5 -58.5t-39 -43t-69.5 -16q-68 0 -100.5 34.5t-32.5 102.5v760q0 82 29.5 120.5t109.5 38.5q68 -2 90.5 -47 t22.5 -151v-84h360v114q0 229 -126 337t-363 108q-248 0 -365.5 -120t-117.5 -370v-630z" />
<glyph unicode="H" horiz-adv-x="1138" d="M84 0h360v639h250v-639h361v1536h-361v-590h-250v590h-360v-1536z" />
<glyph unicode="I" horiz-adv-x="569" d="M104 0h361v1536h-361v-1536z" />
<glyph unicode="J" horiz-adv-x="909" d="M14 424q0 -80 3 -124t14 -83q31 -125 130 -189.5t234 -64.5q131 0 222.5 38t144.5 136q31 57 39 129t8 201v1069h-360l-3 -1241q0 -33 -15 -43t-54 -12q-74 0 -74 77v195h-289v-88z" />
<glyph unicode="K" horiz-adv-x="1138" d="M90 0h361v379l79 156l199 -535h381l-348 858l328 678h-369l-266 -614h-4v614h-361v-1536z" />
<glyph unicode="L" horiz-adv-x="909" d="M76 0h801v307h-441v1229h-360v-1536z" />
<glyph unicode="M" horiz-adv-x="1593" d="M100 0h342l-32 1204h4l248 -1204h268l254 1204h4l-37 -1204h344v1536h-504l-192 -907h-4l-187 907h-508v-1536z" />
<glyph unicode="N" horiz-adv-x="1138" d="M88 0h342l-33 856l4 4l281 -860h369v1536h-342l34 -858h-6l-278 858h-371v-1536z" />
<glyph unicode="O" horiz-adv-x="1138" d="M82 489q0 -268 112.5 -397t378.5 -129q264 0 375 128t111 398v625q0 221 -125 340t-361 119t-363.5 -119t-127.5 -340v-625zM442 459v631q0 41 5.5 75.5t17.5 64.5t38.5 48t67.5 18q43 0 69 -18t38 -47t16 -62.5t4 -78.5v-631q0 -43 -4 -79t-15 -67.5t-38 -52t-68 -20.5 t-67.5 20.5t-39.5 53t-18.5 69.5t-5.5 76z" />
<glyph unicode="P" horiz-adv-x="1138" d="M109 0h360v598q37 2 96 2q104 0 175 8t134 39q59 27 99.5 73t63 104.5t31.5 121t9 129.5q0 106 -20.5 187t-79.5 147q-35 41 -87 66.5t-113.5 39t-120 17.5t-119.5 4h-428v-1536zM469 874v386h39q106 0 141 -13q41 -18 54.5 -67.5t13.5 -110.5q0 -47 -9.5 -87t-35.5 -69 q-31 -25 -71 -32t-99 -7h-33z" />
<glyph unicode="Q" horiz-adv-x="1138" d="M82 489q0 -268 112.5 -397t378.5 -129q29 0 74 4t66 8l202 -227l211 180l-168 181q100 123 101 380v625q0 221 -125 340t-361 119t-363.5 -119t-127.5 -340v-625zM442 459v631q0 41 5.5 75.5t17.5 64.5t38.5 48t67.5 18q43 0 69 -18t38 -47t16 -62.5t4 -78.5v-631 q0 -43 -4 -79t-15 -67.5t-38 -52t-68 -20.5t-67.5 20.5t-39.5 53t-18.5 69.5t-5.5 76z" />
<glyph unicode="R" horiz-adv-x="1138" d="M86 0h360v606h119q59 -4 87 -45t36 -117q4 -33 5 -73.5t1 -134.5q0 -88 2 -148q2 -37 21 -88h393v20q-20 18 -35 54q-8 43 -13 118.5t-11 194.5q-4 133 -9 172q-4 78 -52 130t-126 69v4q109 49 150 134t41 216q0 225 -108.5 324.5t-334.5 99.5h-526v-1536zM446 883v377 q150 0 201 -34t51 -153q0 -84 -28.5 -137t-100.5 -53h-123z" />
<glyph unicode="S" d="M33 350q0 -78 27.5 -147.5t85 -123.5t147.5 -85t209 -31q225 0 344 119t119 340q0 133 -33 219t-101 147q-55 51 -206 140q-88 51 -129 78q-55 39 -83 74.5t-28 88.5q0 6 2 13v12q6 49 37 75.5t88 26.5q39 -2 62.5 -20.5t35 -47t15.5 -59t6 -75.5v-19h332v21l2 20 q0 207 -120 332t-339 125q-213 0 -333 -111.5t-120 -324.5q0 -96 26.5 -171t78.5 -137q47 -53 111.5 -99t160.5 -101q18 -10 29 -17q86 -51 129 -96t43 -123q0 -63 -31 -108t-90 -45q-80 0 -111.5 45t-31.5 121v108h-334v-164z" />
<glyph unicode="T" d="M45 1229h283v-1229h360v1229h291v307h-934v-307z" />
<glyph unicode="U" horiz-adv-x="1138" d="M86 424q0 -231 125 -346t358 -115q135 0 229.5 35t151 96.5t81 144.5t24.5 185v1112h-361v-1149q0 -57 -29.5 -102t-93.5 -45q-70 0 -97.5 36.5t-27.5 100.5v1159h-360v-1112z" />
<glyph unicode="V" horiz-adv-x="1138" d="M23 1536l333 -1536h424l336 1536h-360l-185 -1077h-4l-184 1077h-360z" />
<glyph unicode="W" horiz-adv-x="1593" d="M20 1536l259 -1536h399l119 1081h4l110 -1081h406l256 1536h-342l-113 -1077h-4l-139 1077h-348l-146 -1075l-4 -4l-108 1079h-349z" />
<glyph unicode="X" horiz-adv-x="1138" d="M27 0h344l204 459h5l174 -459h360l-334 766l320 770h-361l-164 -467h-4l-168 467h-358l324 -770z" />
<glyph unicode="Y" horiz-adv-x="1138" d="M23 1536l362 -891v-645h360v645l371 891h-360l-185 -502h-4l-180 502h-364z" />
<glyph unicode="Z" horiz-adv-x="909" d="M20 0h869v307h-467l446 942v287h-815v-307h422l-455 -955v-274z" />
<glyph unicode="[" horiz-adv-x="569" d="M86 -383h451v195h-166v1529h166v195h-451v-1919z" />
<glyph unicode="\" horiz-adv-x="512" d="M-86 1536l467 -1729h219l-461 1729h-225z" />
<glyph unicode="]" horiz-adv-x="569" d="M33 -188v-195h450v1919h-450v-195h166v-1529h-166z" />
<glyph unicode="^" d="M31 764l209 -96l270 571l274 -571l209 96l-360 772h-242z" />
<glyph unicode="_" d="M0 -154v-102h1024v102h-1024z" />
<glyph unicode="`" horiz-adv-x="681" d="M-78 1602l350 -304h281l-205 304h-426z" />
<glyph unicode="a" d="M49 270q0 -137 81 -222t218 -85q92 0 153.5 33t127.5 106l22 -102h318q-27 76 -27 127v702q0 190 -99.5 270.5t-338.5 80.5q-211 0 -324 -90q-57 -47 -87 -120t-30 -186h326v13q6 86 27.5 126t97.5 40q47 0 74.5 -35t27.5 -84q0 -68 -49 -98.5t-157 -63.5 q-51 -14 -76 -23q-61 -20 -110.5 -46.5t-88.5 -70.5t-62.5 -111t-23.5 -161zM377 326q0 53 20.5 88t55.5 59q25 18 92 49q43 20 71 35v-180q-2 -72 -27.5 -123t-90.5 -51q-57 0 -89 34t-32 89z" />
<glyph unicode="b" d="M98 0h303v131h5q39 -78 108.5 -121t151.5 -47q86 2 142 40t87 99.5t43 133t12 153.5v397q0 72 -14 141.5t-46 127t-86 91.5t-132 34q-80 0 -144.5 -29t-99.5 -98h-4v483h-326v-1536zM424 440v271q0 94 22.5 147t83.5 53q33 0 53.5 -18.5t29 -47t10.5 -56t2 -64.5v-297 q0 -43 -2 -76t-12.5 -60.5t-31 -45t-55.5 -17.5q-55 0 -77.5 61.5t-22.5 149.5z" />
<glyph unicode="c" d="M100 319q0 -186 107.5 -271t296.5 -85q37 0 84 4q8 0 24 2q113 12 195 66.5t113 157.5q12 43 19 126.5t7 145.5h-315v-33q2 -23 2 -47q0 -82 -20.5 -134t-82.5 -52q-57 0 -80.5 35.5t-23.5 97.5v473q0 66 20.5 102.5t77.5 36.5q66 0 88 -72q4 -25 9 -71q2 -39 4 -60 l2 -20h307v31q2 18 2 26q0 207 -103.5 303.5t-328.5 98.5q-199 0 -301.5 -90.5t-102.5 -303.5v-467z" />
<glyph unicode="d" d="M84 389q0 -82 12.5 -153.5t43 -133t87 -99.5t142.5 -40q74 0 142.5 44t111.5 126h4v-133h303v1536h-326v-494h-4q-49 72 -108.5 105t-129.5 33q-76 0 -130 -34t-86.5 -91.5t-47 -127t-14.5 -141.5v-397zM410 414v297q0 45 3 76.5t12 61.5t29.5 47t55.5 17q55 0 74.5 -61 t19.5 -154v-270q0 -96 -19.5 -147.5t-80.5 -51.5q-33 0 -52.5 17.5t-28.5 46.5t-11 56.5t-2 64.5z" />
<glyph unicode="e" d="M78 319q0 -94 33.5 -162.5t94 -111.5t139.5 -62.5t171 -19.5q207 2 317.5 100.5t110.5 292.5l-2 21v20h-324q-2 -20 -2 -32q-2 -84 -21.5 -125t-90.5 -41q-51 2 -76 35.5t-25 84.5v201h551v328q0 88 -34.5 152.5t-95 103.5t-138.5 57.5t-170 18.5q-98 0 -178 -21.5 t-137.5 -66.5t-90 -121t-32.5 -185v-467zM403 735v76q0 70 26 112t89 42q57 0 84 -38t27 -79v-113h-226z" />
<glyph unicode="f" horiz-adv-x="681" d="M39 909h131v-909h326v909h139v236h-139v117q0 20 19.5 29t49.5 9h70v236h-143q-164 0 -241 -65.5t-81 -225.5l-2 -100h-129v-236z" />
<glyph unicode="g" d="M74 -63q4 -96 33.5 -160t84 -99.5t128 -50t172.5 -14.5q96 0 173.5 20.5t137 62.5t92.5 112.5t33 168.5v1170h-303v-139h-4q-80 166 -259 172q-76 0 -131 -34t-87.5 -92.5t-47 -127t-14.5 -140.5v-397q0 -70 16.5 -133t51 -114.5t90 -82t129.5 -30.5q123 0 231 125h4 v-232q-2 -53 -23.5 -71.5t-74.5 -22.5q-68 0 -87.5 23.5t-19.5 85.5h-325zM408 418v325q0 74 18 122t70 48q61 0 83.5 -42t22.5 -109v-318q0 -66 -19.5 -107.5t-78.5 -41.5q-53 0 -74.5 34t-21.5 89z" />
<glyph unicode="h" d="M94 0h326v793q0 49 22.5 84.5t71.5 35.5q55 0 73.5 -22.5t18.5 -75.5v-815h326v920q0 113 -72 186.5t-188 73.5q-74 0 -134.5 -28t-113.5 -95h-4v479h-326v-1536z" />
<glyph unicode="i" horiz-adv-x="569" d="M123 0h326v1147h-326v-1147zM123 1260h326v276h-326v-276z" />
<glyph unicode="j" horiz-adv-x="569" d="M29 -152v-235h155q160 6 216.5 95t56.5 263v1176h-326v-1194q0 -43 -12.5 -73t-48.5 -32h-41zM131 1260h326v276h-326v-276z" />
<glyph unicode="k" d="M82 0h326v369l55 73l190 -442h342l-327 686l323 461h-356l-223 -383h-4v772h-326v-1536z" />
<glyph unicode="l" horiz-adv-x="569" d="M123 0h326v1536h-326v-1536z" />
<glyph unicode="m" horiz-adv-x="1478" d="M78 0h325v819q6 94 97 94q37 0 52 -23.5t26 -70.5v-819h325v819q0 92 88 94q43 0 62.5 -25.5t23.5 -68.5v-819h326v940q0 113 -84 176.5t-207 63.5q-150 0 -238 -152h-4q-27 70 -92 111t-149 41q-70 -4 -137.5 -48.5t-106.5 -117.5h-4v133h-303v-1147z" />
<glyph unicode="n" d="M100 0h326v819q0 92 88 94q43 0 62.5 -25.5t23.5 -68.5v-819h326v940q0 113 -84 176.5t-207 63.5q-74 0 -138.5 -53.5t-88.5 -122.5h-5v143h-303v-1147z" />
<glyph unicode="o" d="M86 319q0 -96 33 -163.5t91 -110.5t135 -62.5t167 -19.5q195 0 304.5 84t121.5 272v467q0 393 -426 394q-203 0 -314.5 -91.5t-111.5 -302.5v-467zM412 299v512q0 61 23.5 97t76.5 36t76.5 -36t23.5 -97v-512q-10 -100 -100 -100t-100 100z" />
<glyph unicode="p" d="M86 -387h326v496h4q51 -76 116.5 -111t120.5 -35q86 2 142.5 40t87 99.5t43 133t12.5 153.5v397q0 72 -14.5 141.5t-46 127t-86 91.5t-132.5 34q-174 -6 -266 -172h-4v139h-303v-1534zM412 440v271q0 94 22.5 148t83.5 54q33 0 52.5 -18t28.5 -47t11 -57.5t2 -65.5v-297 q0 -43 -2 -76t-12 -60.5t-30.5 -45t-55.5 -17.5q-55 0 -77.5 61.5t-22.5 149.5z" />
<glyph unicode="q" d="M72 389q0 -82 12 -153.5t43 -133t87 -99.5t142 -40q55 0 121 35t117 111h4v-494h326v1532h-303v-139h-5q-92 166 -266 172q-76 0 -130 -34t-87 -91.5t-47 -127t-14 -141.5v-397zM397 414v297q0 45 3 76.5t12.5 61.5t30 47t55.5 17q55 0 77.5 -62.5t22.5 -152.5v-270 q0 -94 -22.5 -146.5t-83.5 -52.5q-33 0 -52.5 17.5t-29 46.5t-11.5 56.5t-2 64.5z" />
<glyph unicode="r" horiz-adv-x="681" d="M86 0h326v707q4 68 33.5 90t101.5 22q55 0 98 -8v369q-98 0 -160.5 -55.5t-91.5 -151.5h-4v174h-303v-1147z" />
<glyph unicode="s" horiz-adv-x="909" d="M25 350q0 -203 113.5 -295t312.5 -92q193 0 313.5 91t120.5 274q0 84 -28 145.5t-76 103t-103 70.5t-148 68q-57 25 -84 37q-47 23 -73.5 49t-26.5 67q0 49 30 73t79 24q37 0 58.5 -13.5t31.5 -36.5q12 -25 16 -84q0 -8 2 -24h305q0 186 -115.5 279.5t-299.5 93.5 t-304 -89.5t-120 -265.5q0 -121 82 -215q47 -53 113.5 -91t176.5 -85q84 -39 125 -59q43 -33 43 -88q0 -53 -31.5 -81t-84.5 -28q-68 0 -97 55q-20 39 -20 117h-311z" />
<glyph unicode="t" horiz-adv-x="681" d="M25 911h129v-663q0 -264 272 -264q84 0 209 18v229q-39 0 -53.5 -1t-30.5 -3q-35 0 -53.5 17.5t-18.5 62.5v604h156v236h-156v328h-325v-328h-129v-236z" />
<glyph unicode="u" d="M94 205q0 -117 75 -179.5t216 -62.5q74 0 138.5 54.5t88.5 123.5h4v-141h304v1147h-326v-821q0 -92 -94 -97q-43 0 -59.5 26t-20.5 71v821h-326v-942z" />
<glyph unicode="v" horiz-adv-x="909" d="M18 1147l250 -1147h373l252 1147h-318l-116 -741h-4l-109 741h-328z" />
<glyph unicode="w" horiz-adv-x="1366" d="M18 1147l220 -1147h348l98 596h4l92 -596h348l222 1147h-312l-90 -741h-4l-117 741h-278l-119 -741h-4l-92 741h-316z" />
<glyph unicode="x" horiz-adv-x="909" d="M18 0h334l105 330h4l104 -330h326l-264 573l256 574h-326l-102 -322h-4l-97 322h-323l256 -574z" />
<glyph unicode="y" horiz-adv-x="909" d="M12 1147l228 -1038l8 -33q12 -53 20 -93t8 -69q0 -27 -26.5 -43t-56.5 -16q-4 0 -9 2h-6q-20 4 -57 8h-6v-242q14 0 47 -4q49 -6 82 -6q111 0 181.5 30.5t111.5 85t62.5 122t49.5 188.5q18 82 31 127l207 981h-320l-112 -741h-4l-111 741h-328z" />
<glyph unicode="z" horiz-adv-x="796" d="M29 0h739v256h-373l373 653v238h-717v-256h350l-372 -664v-227z" />
<glyph unicode="{" horiz-adv-x="561" d="M-18 662q86 -23 119.5 -75t33.5 -145v-331q0 -82 11.5 -139.5t48.5 -94.5q39 -43 101 -57.5t165 -14.5h55q51 2 64 2v5q-88 23 -121 79t-33 144v352q0 117 -34 189.5t-134 87.5v4q98 23 133 82t35 176v377q0 96 33 152t121 77v4q-182 0 -246 -8q-39 -4 -65.5 -14.5 t-53.5 -28.5q-49 -35 -64.5 -87t-15.5 -132v-377q0 -88 -36 -149.5t-117 -73.5v-4z" />
<glyph unicode="|" horiz-adv-x="512" d="M111 -512h290v2048h-290v-2048z" />
<glyph unicode="}" horiz-adv-x="561" d="M-18 -188v-5h59q35 -2 51 -2q106 0 170 14.5t105 57.5q39 37 49 94.5t10 139.5v331q0 102 29.5 156.5t124.5 65.5v4q-82 12 -118 72.5t-36 150.5v375q0 80 -14.5 132t-65.5 89q-47 33 -119 41q-39 6 -97 7t-148 1v-4q82 -16 117.5 -73.5t35.5 -153.5v-379 q0 -115 35 -175.5t133 -82.5v-4q-104 -29 -136 -93.5t-32 -183.5v-350q0 -94 -32.5 -149.5t-120.5 -75.5z" />
<glyph unicode="~" d="M53 465l117 -152q10 18 14 29q35 68 65 103.5t79 35.5q18 0 49 -12t86 -39q84 -41 141.5 -62.5t104.5 -21.5q84 0 138 56.5t116 164.5l10 19l-117 149q-4 -6 -18 -33q-31 -57 -58.5 -87.5t-70.5 -30.5q-25 0 -60 14t-92 43q-80 39 -131 58.5t-100 19.5q-90 0 -154 -70.5 t-119 -183.5z" />
<glyph unicode="&#xa1;" horiz-adv-x="681" d="M162 -2v-385h360v385l-88 655h-184zM168 797h346v350h-346v-350z" />
<glyph unicode="&#xa2;" d="M94 428q0 -82 5 -140.5t24.5 -112.5t59.5 -99t106 -76l-58 -301h177l55 268q27 -4 78 -4q125 0 205.5 35t123.5 100.5t59.5 154.5t16.5 212h-293v-6q-4 -106 -8 -156q-4 -68 -30.5 -96.5t-92.5 -28.5q-12 0 -28 4l118 750q6 -4 11 -14q14 -41 18 -85.5t4 -111.5h289 q0 6 2 31v28q0 152 -55.5 243t-171.5 128l53 252h-176l-54 -223q-72 0 -128 -8.5t-109 -32.5q-70 -33 -112 -79t-60.5 -101.5t-23.5 -115t-5 -147.5v-268zM408 356v435q0 102 30.5 139t73.5 37q10 0 27 -2q4 -2 6 -2l-119 -734q-10 6 -14 42t-4 85z" />
<glyph unicode="&#xa3;" d="M0 186l115 -219q106 66 227 66q63 0 182 -35t183 -35q68 0 125 17.5t137 54.5l-68 256q-80 -70 -178 -70q-25 0 -84 17q-98 25 -166 24q-119 0 -223 -61v4q104 80 173 177t69 206q0 16 -7 55q-2 25 -4 41h258v127h-293q-12 37 -14 45q-31 92 -45 153.5t-14 125.5 q0 78 27.5 130t95.5 52q47 0 75.5 -22.5t41 -59.5t15.5 -75t3 -93h313l-2 129q-18 182 -136 279.5t-304 97.5q-90 0 -172 -26.5t-145.5 -79t-100.5 -128t-37 -170.5q2 -104 23.5 -191t70.5 -167h-131v-127h185q18 -55 18 -131q0 -106 -59.5 -205t-153.5 -162z" />
<glyph unicode="&#xa4;" d="M0 281l162 -162l90 90q123 -80 274 -80q131 0 265 80l90 -90l161 162l-90 90q74 115 74 264q0 137 -74 266l90 88l-161 164l-90 -90q-125 78 -275 78q-66 0 -135.5 -20.5t-128.5 -57.5l-90 90l-162 -164l90 -88q-76 -125 -76 -268q0 -74 18.5 -133.5t57.5 -128.5z M268 635q0 102 73 177t179 75t179 -75t73 -177t-72.5 -177t-179.5 -75q-106 0 -179 75t-73 177z" />
<glyph unicode="&#xa5;" d="M-35 1536l359 -893v-63h-183v-127h183v-101h-183v-127h183v-225h368v225h187v127h-187v101h187v127h-187v65l367 891h-389l-156 -502h-4l-152 502h-393z" />
<glyph unicode="&#xa6;" horiz-adv-x="512" d="M111 -358h290v716h-290v-716zM111 666h290v716h-290v-716z" />
<glyph unicode="&#xa7;" d="M55 688q0 -147 73 -246.5t200 -187.5q20 -14 63 -43q113 -76 166 -128t59 -124q0 -47 -33.5 -73.5t-93.5 -26.5q-57 0 -82.5 43t-25.5 112h-295q0 -178 102.5 -284.5t276.5 -106.5q207 0 327.5 98.5t120.5 298.5q0 68 -28.5 131.5t-79.5 108.5q2 2 16 10q23 16 46.5 35 t47 52.5t40 85t16.5 120.5q0 100 -50.5 180t-140.5 154q-41 35 -131 100q-135 98 -188 152q-41 41 -41 92q0 96 98 96q104 0 105 -123h292q0 174 -111.5 266.5t-281.5 92.5q-188 0 -292.5 -110.5t-104.5 -254.5q0 -135 92 -219q-72 -49 -117 -132t-45 -169zM328 717 q0 27 17 53.5t42 42.5q6 -4 64 -47q133 -98 190 -156q4 -4 14 -16q16 -18 24.5 -33.5t8.5 -42.5q0 -35 -11 -55.5t-40 -52.5l-2 -2q-29 23 -94 73q-66 51 -95 74q-14 12 -18 16q-49 39 -74.5 71t-25.5 75z" />
<glyph unicode="&#xa8;" horiz-adv-x="681" d="M-41 1311h324v266h-324v-266zM401 1311h324v266h-324v-266z" />
<glyph unicode="&#xa9;" horiz-adv-x="1699" d="M43 770q0 -150 48 -293t147.5 -260t254 -185.5t357.5 -68.5q178 0 327.5 61.5t257 173t165 259t57.5 313.5q0 160 -52.5 304.5t-155.5 257t-255 177t-344 64.5q-203 0 -357.5 -69.5t-254 -186.5t-147.5 -259.5t-48 -287.5zM244 770q0 133 43 245.5t122.5 193.5t191.5 124 t245 43t245.5 -42t194.5 -121.5t126 -190.5t44 -244q0 -135 -44 -248.5t-126 -196.5t-194.5 -128t-245.5 -45t-245 43t-191.5 125t-122.5 194.5t-43 247.5zM438 778q0 -96 32 -181t91.5 -148.5t141 -99.5t180.5 -36q145 0 252.5 86t124.5 228h-183q-4 -70 -65.5 -109 t-141.5 -39q-119 0 -180 90t-61 217q0 129 61.5 214t183.5 85q80 0 134.5 -37.5t68.5 -111.5h183q-27 143 -130.5 224t-250.5 81q-201 0 -321 -130t-120 -333z" />
<glyph unicode="&#xaa;" horiz-adv-x="614" d="M20 1028q0 -82 53.5 -133t139.5 -51q57 0 96 19.5t80 62.5h2l10 -62h195q-14 43 -14 78v420q0 121 -68 166t-205 45q-129 0 -200 -53q-37 -29 -54.5 -73t-17.5 -112h203q0 6 2 17q0 33 8 47q10 20 25.5 26.5t41.5 6.5q66 0 66 -60q0 -18 -10 -43q-20 -18 -54 -31.5 t-88 -29.5q-4 0 -8 -2l-4 -2q-59 -18 -92 -36t-51 -44q-33 -39 -44.5 -72t-11.5 -84zM240 1061q0 51 21.5 72.5t74.5 44.5q31 14 47 22v-108q0 -43 -17.5 -75t-58.5 -32q-33 0 -50 20.5t-17 55.5z" />
<glyph unicode="&#xab;" d="M76 489l368 -237v266l-206 119l206 129v268l-368 -246v-299zM567 489l369 -237v266l-209 119l209 129v268l-369 -246v-299z" />
<glyph unicode="&#xac;" d="M53 594h684v-358h236v593h-920v-235z" />
<glyph unicode="&#xad;" d="M53 393h920v236h-920v-236z" />
<glyph unicode="&#x2212;" d="M53 393h920v236h-920v-236z" />
<glyph unicode="&#xae;" horiz-adv-x="1699" d="M43 770q0 -150 48 -293t147.5 -260t254 -185.5t357.5 -68.5q178 0 327.5 61.5t257 173t165 259t57.5 313.5q0 160 -52.5 304.5t-155.5 257t-255 177t-344 64.5q-203 0 -357.5 -69.5t-254 -186.5t-147.5 -259.5t-48 -287.5zM244 770q0 133 43 245.5t122.5 193.5t191.5 124 t245 43t245.5 -42t194.5 -121.5t126 -190.5t44 -244q0 -135 -44 -248.5t-126 -196.5t-194.5 -128t-245.5 -45t-245 43t-191.5 125t-122.5 194.5t-43 247.5zM477 330h191v348h149l193 -348h219l-211 368q119 8 178 63.5t59 170.5q0 141 -72.5 202.5t-217.5 65.5h-488v-870z M668 827v226h211q86 0 125 -15q31 -10 47 -30.5t16 -53.5q0 -76 -33 -101.5t-112 -25.5h-254z" />
<glyph unicode="&#xaf;" horiz-adv-x="681" d="M-43 1358h770v184h-770v-184z" />
<glyph unicode="&#xb0;" horiz-adv-x="819" d="M102 1229q0 -61 24 -117.5t67 -99.5t99 -66.5t118 -23.5q61 0 117.5 23.5t99.5 65.5t66.5 98t23.5 120q0 61 -23.5 117.5t-66.5 99.5t-99.5 66.5t-117.5 23.5t-117.5 -23.5t-99.5 -66.5t-67 -98.5t-24 -118.5zM319 1229q0 37 27 63.5t64 26.5t63.5 -26.5t26.5 -63.5 t-27 -63.5t-63 -26.5q-37 0 -64 26.5t-27 63.5z" />
<glyph unicode="&#xb1;" d="M53 -25h920v236h-920v-236zM53 567h342v-256h236v256h342v236h-342v241h-236v-241h-342v-236z" />
<glyph unicode="&#xb2;" horiz-adv-x="614" d="M8 614h598v166h-344q6 33 46 77t85 85l86 76q68 66 96.5 124t28.5 140q0 127 -75.5 190.5t-213.5 63.5q-150 0 -227.5 -73.5t-77.5 -211.5v-49h211v45q0 51 15.5 92t62.5 43q43 0 63.5 -26.5t20.5 -63.5q0 -51 -14.5 -86t-51.5 -71l-100 -99q-94 -94 -151.5 -190 t-57.5 -201v-31z" />
<glyph unicode="&#xb3;" horiz-adv-x="614" d="M8 848q0 -123 77 -189.5t214 -66.5q147 0 227 67.5t80 204.5q0 84 -35.5 145.5t-121.5 80.5v4q135 57 135 204q0 121 -76 179.5t-209 58.5q-113 0 -202 -62.5t-89 -160.5v-68h213q0 8 2 25q0 43 6 61q6 25 21.5 37t42.5 12q45 0 61.5 -25.5t16.5 -68.5q0 -29 -10.5 -59.5 t-30.5 -44.5q-23 -14 -49.5 -18.5t-69.5 -6.5h-18v-147h16h16q43 0 66.5 -3t42.5 -14q29 -16 40 -52t11 -77q0 -51 -16.5 -85t-65.5 -34q-33 0 -51.5 16.5t-24.5 43.5q-6 25 -6 78q-2 20 -2 28h-211v-63z" />
<glyph unicode="&#xb4;" horiz-adv-x="681" d="M129 1298h281l350 304h-426z" />
<glyph unicode="&#xb5;" d="M94 -387h326v371q63 0 117.5 48t74.5 109h4v-141h304v1147h-326v-821q0 -92 -94 -97q-43 0 -59.5 26t-20.5 71v821h-326v-1534z" />
<glyph unicode="&#xb6;" horiz-adv-x="1126" d="M23 1171q0 -162 94 -256t252 -94v-1059h276v1538h135v-1538h277v1538h76v236h-668q-219 0 -330.5 -83t-111.5 -282z" />
<glyph unicode="&#xb7;" horiz-adv-x="681" d="M168 336h346v350h-346v-350z" />
<glyph unicode="&#x2219;" horiz-adv-x="681" d="M168 336h346v350h-346v-350z" />
<glyph unicode="&#xb8;" horiz-adv-x="681" d="M78 -418q86 -31 143.5 -44t126.5 -13q96 0 177 52t81 144q0 74 -57 114t-135 44q-53 0 -76 -10l-4 4l82 127h-119l-115 -188l54 -50q39 20 86 21q33 -2 56 -20.5t25 -51.5q0 -37 -31.5 -56.5t-74.5 -19.5q-45 0 -129 27q-31 10 -47 14z" />
<glyph unicode="&#xb9;" horiz-adv-x="614" d="M100 1257h203v-622h211v901h-149q-16 -72 -91 -104.5t-174 -32.5v-142z" />
<glyph unicode="&#xba;" horiz-adv-x="614" d="M31 1057q0 -111 75.5 -162t200.5 -51q127 0 197.5 50t79.5 163v280q0 236 -277 236q-131 0 -203.5 -55.5t-72.5 -180.5v-280zM242 1044v308q0 37 15 58.5t50 21.5t50.5 -21.5t15.5 -58.5v-308q-6 -59 -66 -59q-59 0 -65 59z" />
<glyph unicode="&#xbb;" d="M88 252l369 237v299l-369 246v-268l209 -129l-209 -119v-266zM580 252l368 237v299l-368 246v-268l206 -129l-206 -119v-266z" />
<glyph unicode="&#xbc;" horiz-adv-x="1536" d="M29 1257h202v-622h211v901h-149q-16 -72 -91 -104.5t-173 -32.5v-142zM266 0h178l834 1536h-172zM877 176h331v-176h211v176h88v154h-88v571h-231l-311 -553v-172zM1042 330l162 299h4v-299h-166z" />
<glyph unicode="&#xbd;" horiz-adv-x="1536" d="M20 1257h203v-622h211v901h-149q-16 -72 -91 -104.5t-174 -32.5v-142zM221 0h178l834 1536h-172zM918 0h598v166h-345q6 33 46 77t86 85l86 75q68 66 96 124.5t28 140.5q0 127 -75.5 190.5t-212.5 63.5q-150 0 -227.5 -74t-77.5 -211v-49h210v45q0 51 15.5 92t62.5 43 q43 0 63.5 -26.5t20.5 -63.5q0 -51 -14 -86t-51 -72l-101 -98q-94 -94 -151 -190.5t-57 -200.5v-31z" />
<glyph unicode="&#xbe;" horiz-adv-x="1536" d="M2 848q0 -123 77 -189.5t214 -66.5q147 0 227 67.5t80 204.5q0 84 -36 145.5t-122 80.5v4q135 57 136 204q0 121 -76 179.5t-209 58.5q-113 0 -202 -62.5t-89 -160.5v-68h213q0 8 2 25q0 43 6 61q6 25 21.5 37t42.5 12q45 0 61.5 -25.5t16.5 -68.5q0 -29 -10.5 -59.5 t-30.5 -44.5q-23 -14 -49.5 -18.5t-69.5 -6.5h-19v-147h17h16q43 0 66.5 -3t42.5 -14q29 -16 40 -52t11 -77q0 -51 -16.5 -85t-65.5 -34q-33 0 -51.5 16.5t-24.5 43.5q-6 25 -6 78q-2 20 -2 28h-211v-63zM328 0h178l833 1536h-172zM891 176h332v-176h211v176h88v154h-88v571 h-232l-311 -553v-172zM1057 330l162 299h4v-299h-166z" />
<glyph unicode="&#xbf;" d="M57 2q0 -102 37 -176t101.5 -121t148.5 -69.5t182 -22.5q207 0 331 130t124 355h-326q0 -47 -3 -79.5t-14 -62.5t-37 -48.5t-69 -18.5q-57 0 -85.5 38t-28.5 98q0 39 18.5 84t47 89t56 78.5t70.5 88.5q25 29 35 41q31 51 41 115.5t10 172.5h-309l-2 -18 q-6 -68 -15.5 -103.5t-43.5 -85.5q-31 -41 -95 -118q-20 -25 -38 -47q-68 -82 -102 -156t-34 -164zM371 829h346v351h-346v-351z" />
<glyph unicode="&#xc0;" horiz-adv-x="1138" d="M18 0h363l43 299h283l51 -299h364l-334 1536h-434zM152 1991l350 -303h280l-204 303h-426zM463 569l104 688h4l101 -688h-209z" />
<glyph unicode="&#xc1;" horiz-adv-x="1138" d="M18 0h363l43 299h283l51 -299h364l-334 1536h-434zM358 1688h281l350 303h-426zM463 569l104 688h4l101 -688h-209z" />
<glyph unicode="&#xc2;" horiz-adv-x="1138" d="M18 0h363l43 299h283l51 -299h364l-334 1536h-434zM135 1647h301l115 153l113 -153h303l-248 303h-338zM463 569l104 688h4l101 -688h-209z" />
<glyph unicode="&#xc3;" horiz-adv-x="1138" d="M18 0h363l43 299h283l51 -299h364l-334 1536h-434zM170 1647h162q6 37 30.5 62.5t59.5 25.5q29 0 108 -31l15 -6q94 -39 170 -39q115 0 179 76.5t77 195.5h-164q-2 -29 -28.5 -52.5t-57.5 -23.5q-33 0 -111 33q-6 2 -18 8q-51 18 -89 28.5t-81 10.5q-59 0 -103.5 -24.5 t-73 -65.5t-46 -90t-29.5 -108zM463 569l104 688h4l101 -688h-209z" />
<glyph unicode="&#xc4;" horiz-adv-x="1138" d="M18 0h363l43 299h283l51 -299h364l-334 1536h-434zM188 1700h324v266h-324v-266zM463 569l104 688h4l101 -688h-209zM631 1700h323v266h-323v-266z" />
<glyph unicode="&#xc5;" horiz-adv-x="1138" d="M18 0h363l43 299h283l51 -299h364l-334 1536h-434zM340 1819q0 -96 67.5 -164t163.5 -68q94 0 162 68.5t68 163.5q0 94 -67.5 161.5t-162.5 67.5q-94 0 -162.5 -67.5t-68.5 -161.5zM463 569l104 688h4l101 -688h-209zM465 1819q0 43 32.5 74.5t73.5 31.5t74 -32.5 t33 -73.5t-32 -74t-75 -33t-74.5 32t-31.5 75z" />
<glyph unicode="&#xc6;" horiz-adv-x="1593" d="M-47 0h377l96 332h291v-332h809v307h-469v328h436v307h-436v287h454v307h-1003zM502 639l176 590h33v-590h-209z" />
<glyph unicode="&#xc7;" horiz-adv-x="1138" d="M80 453q0 -229 97 -352.5t315 -133.5l-95 -155l54 -50q39 20 86 21q33 -2 56 -20.5t25 -51.5q0 -37 -31.5 -56.5t-74.5 -19.5q-45 0 -129 27q-31 10 -47 14l-43 -94q86 -31 143.5 -44t126.5 -13q96 0 177 52t81 144q0 74 -57 114t-135 44q-53 0 -76 -10l-4 4l61 94 q231 16 341 134t110 311v188h-361v-139q0 -43 -4 -80t-17 -68.5t-41 -52t-71 -20.5q-68 0 -98.5 34.5t-30.5 102.5l2 760q0 82 30 120.5t110 38.5q53 0 83.5 -51t30.5 -147v-99h361v129q0 229 -127 337t-365 108q-248 0 -365.5 -120t-117.5 -370v-630z" />
<glyph unicode="&#xc8;" d="M94 0h850v307h-489v332h450v307h-450v283h465v307h-826v-1536zM94 1991l350 -303h281l-205 303h-426z" />
<glyph unicode="&#xc9;" d="M94 0h850v307h-489v332h450v307h-450v283h465v307h-826v-1536zM301 1688h281l350 303h-426z" />
<glyph unicode="&#xca;" d="M94 0h850v307h-489v332h450v307h-450v283h465v307h-826v-1536zM98 1647h301l115 153l113 -153h303l-248 303h-338z" />
<glyph unicode="&#xcb;" d="M94 0h850v307h-489v332h450v307h-450v283h465v307h-826v-1536zM131 1700h324v266h-324v-266zM573 1700h324v266h-324v-266z" />
<glyph unicode="&#xcc;" horiz-adv-x="569" d="M-133 1991l350 -303h281l-205 303h-426zM104 0h361v1536h-361v-1536z" />
<glyph unicode="&#xcd;" horiz-adv-x="569" d="M74 1688h280l351 303h-426zM104 0h361v1536h-361v-1536z" />
<glyph unicode="&#xce;" horiz-adv-x="569" d="M-129 1647h301l115 153l112 -153h303l-247 303h-338zM104 0h361v1536h-361v-1536z" />
<glyph unicode="&#xcf;" horiz-adv-x="569" d="M-96 1700h323v266h-323v-266zM104 0h361v1536h-361v-1536zM346 1700h324v266h-324v-266z" />
<glyph unicode="&#xd0;" horiz-adv-x="1138" d="M4 639h90v-639h486q94 0 172.5 15.5t146.5 56.5q72 45 113 137t41 221v655q0 131 -33 227.5t-129 151.5q-80 45 -179.5 58.5t-250.5 13.5h-367v-590h-90v-307zM455 276v363h151v307h-151v314q141 0 189 -35t48 -160v-553q0 -141 -37 -188.5t-155 -47.5h-45z" />
<glyph unicode="&#xd1;" horiz-adv-x="1138" d="M88 0h342l-33 856l4 4l281 -860h369v1536h-342l34 -858h-6l-278 858h-371v-1536zM170 1647h162q6 37 30.5 62.5t59.5 25.5q29 0 108 -31l15 -6q94 -39 170 -39q115 0 179 76.5t77 195.5h-164q-2 -29 -28.5 -52.5t-57.5 -23.5q-33 0 -111 33q-6 2 -18 8q-51 18 -89 28.5 t-81 10.5q-59 0 -103.5 -24.5t-73 -65.5t-46 -90t-29.5 -108z" />
<glyph unicode="&#xd2;" horiz-adv-x="1138" d="M82 489q0 -268 112.5 -397t378.5 -129q264 0 375 128t111 398v625q0 221 -125 340t-361 119t-363.5 -119t-127.5 -340v-625zM152 1991l350 -303h280l-204 303h-426zM442 459v631q0 41 5.5 75.5t17.5 64.5t38.5 48t67.5 18q43 0 69 -18t38 -47t16 -62.5t4 -78.5v-631 q0 -43 -4 -79t-15 -67.5t-38 -52t-68 -20.5t-67.5 20.5t-39.5 53t-18.5 69.5t-5.5 76z" />
<glyph unicode="&#xd3;" horiz-adv-x="1138" d="M82 489q0 -268 112.5 -397t378.5 -129q264 0 375 128t111 398v625q0 221 -125 340t-361 119t-363.5 -119t-127.5 -340v-625zM358 1688h281l350 303h-426zM442 459v631q0 41 5.5 75.5t17.5 64.5t38.5 48t67.5 18q43 0 69 -18t38 -47t16 -62.5t4 -78.5v-631q0 -43 -4 -79 t-15 -67.5t-38 -52t-68 -20.5t-67.5 20.5t-39.5 53t-18.5 69.5t-5.5 76z" />
<glyph unicode="&#xd4;" horiz-adv-x="1138" d="M82 489q0 -268 112.5 -397t378.5 -129q264 0 375 128t111 398v625q0 221 -125 340t-361 119t-363.5 -119t-127.5 -340v-625zM156 1647h301l114 153l113 -153h303l-248 303h-338zM442 459v631q0 41 5.5 75.5t17.5 64.5t38.5 48t67.5 18q43 0 69 -18t38 -47t16 -62.5 t4 -78.5v-631q0 -43 -4 -79t-15 -67.5t-38 -52t-68 -20.5t-67.5 20.5t-39.5 53t-18.5 69.5t-5.5 76z" />
<glyph unicode="&#xd5;" horiz-adv-x="1138" d="M82 489q0 -268 112.5 -397t378.5 -129q264 0 375 128t111 398v625q0 221 -125 340t-361 119t-363.5 -119t-127.5 -340v-625zM170 1647h162q6 37 30.5 62.5t59.5 25.5q29 0 108 -31l15 -6q94 -39 170 -39q115 0 179 76.5t77 195.5h-164q-2 -29 -28.5 -52.5t-57.5 -23.5 q-33 0 -111 33q-6 2 -18 8q-51 18 -89 28.5t-81 10.5q-59 0 -103.5 -24.5t-73 -65.5t-46 -90t-29.5 -108zM442 459v631q0 41 5.5 75.5t17.5 64.5t38.5 48t67.5 18q43 0 69 -18t38 -47t16 -62.5t4 -78.5v-631q0 -43 -4 -79t-15 -67.5t-38 -52t-68 -20.5t-67.5 20.5t-39.5 53 t-18.5 69.5t-5.5 76z" />
<glyph unicode="&#xd6;" horiz-adv-x="1138" d="M82 489q0 -268 112.5 -397t378.5 -129q264 0 375 128t111 398v625q0 221 -125 340t-361 119t-363.5 -119t-127.5 -340v-625zM188 1700h324v266h-324v-266zM442 459v631q0 41 5.5 75.5t17.5 64.5t38.5 48t67.5 18q43 0 69 -18t38 -47t16 -62.5t4 -78.5v-631q0 -43 -4 -79 t-15 -67.5t-38 -52t-68 -20.5t-67.5 20.5t-39.5 53t-18.5 69.5t-5.5 76zM631 1700h323v266h-323v-266z" />
<glyph unicode="&#xd7;" d="M68 244l168 -166l276 278l279 -278l165 166l-276 278l276 279l-165 166l-279 -279l-276 279l-168 -166l278 -279z" />
<glyph unicode="&#xd8;" horiz-adv-x="1138" d="M10 -76l168 -98l105 199q111 -61 290 -62q264 0 375 128t111 398v625q0 119 -33 199l158 270l-180 94l-111 -192q-119 88 -320 88q-236 0 -363.5 -119t-127.5 -340v-625q0 -211 65 -329zM442 602v488q0 41 5.5 75.5t17.5 64.5t38.5 48t67.5 18q43 0 69 -18t38 -47 t16 -62.5t4 -78.5v-23l-252 -465h-4zM446 389l248 447h4v-377q0 -43 -4 -79t-15 -67.5t-38 -52t-68 -20.5q-59 0 -89 40.5t-38 108.5z" />
<glyph unicode="&#xd9;" horiz-adv-x="1138" d="M86 424q0 -231 125 -346t358 -115q135 0 229.5 35t151 96.5t81 144.5t24.5 185v1112h-361v-1149q0 -57 -29.5 -102t-93.5 -45q-70 0 -97.5 36.5t-27.5 100.5v1159h-360v-1112zM152 1991l350 -303h280l-204 303h-426z" />
<glyph unicode="&#xda;" horiz-adv-x="1138" d="M86 424q0 -231 125 -346t358 -115q135 0 229.5 35t151 96.5t81 144.5t24.5 185v1112h-361v-1149q0 -57 -29.5 -102t-93.5 -45q-70 0 -97.5 36.5t-27.5 100.5v1159h-360v-1112zM358 1688h281l350 303h-426z" />
<glyph unicode="&#xdb;" horiz-adv-x="1138" d="M86 424q0 -231 125 -346t358 -115q135 0 229.5 35t151 96.5t81 144.5t24.5 185v1112h-361v-1149q0 -57 -29.5 -102t-93.5 -45q-70 0 -97.5 36.5t-27.5 100.5v1159h-360v-1112zM156 1647h301l114 153l113 -153h303l-248 303h-338z" />
<glyph unicode="&#xdc;" horiz-adv-x="1138" d="M86 424q0 -231 125 -346t358 -115q135 0 229.5 35t151 96.5t81 144.5t24.5 185v1112h-361v-1149q0 -57 -29.5 -102t-93.5 -45q-70 0 -97.5 36.5t-27.5 100.5v1159h-360v-1112zM188 1700h324v266h-324v-266zM631 1700h323v266h-323v-266z" />
<glyph unicode="&#xdd;" horiz-adv-x="1138" d="M23 1536l362 -891v-645h360v645l371 891h-360l-185 -502h-4l-180 502h-364zM358 1688h281l350 303h-426z" />
<glyph unicode="&#xde;" horiz-adv-x="1138" d="M109 0h360v403h68q276 0 408 103.5t132 365.5q0 139 -33.5 230.5t-101.5 143.5t-167 73.5t-238 21.5h-68v195h-360v-1536zM469 680v385h63q106 0 145.5 -34t39.5 -159t-39 -158.5t-146 -33.5h-63z" />
<glyph unicode="&#xdf;" d="M90 0h326v1237q4 47 23.5 73.5t60.5 26.5q59 0 75.5 -42t16.5 -134t-17.5 -133t-76.5 -41v-235q70 0 93 -32t27 -102v-241q0 -82 -16 -116t-65 -34q-16 0 -39 4v-235q25 -12 52.5 -22.5t55.5 -10.5q172 6 253 112.5t85 282.5v232q0 33 -10 78t-30.5 91t-54.5 82t-79 48v4 q82 45 111.5 107.5t36.5 166.5q0 190 -111 298t-293 108q-197 0 -310.5 -93.5t-113.5 -273.5v-1206z" />
<glyph unicode="&#xe0;" d="M49 270q0 -137 81 -222t218 -85q92 0 153.5 33t127.5 106l22 -102h318q-27 76 -27 127v702q0 190 -99.5 270.5t-338.5 80.5q-211 0 -324 -90q-57 -47 -87 -120t-30 -186h326v13q6 86 27.5 126t97.5 40q47 0 74.5 -35t27.5 -84q0 -68 -49 -98.5t-157 -63.5 q-51 -14 -76 -23q-61 -20 -110.5 -46.5t-88.5 -70.5t-62.5 -111t-23.5 -161zM94 1602l350 -304h281l-205 304h-426zM377 326q0 53 20.5 88t55.5 59q25 18 92 49q43 20 71 35v-180q-2 -72 -27.5 -123t-90.5 -51q-57 0 -89 34t-32 89z" />
<glyph unicode="&#xe1;" d="M49 270q0 -137 81 -222t218 -85q92 0 153.5 33t127.5 106l22 -102h318q-27 76 -27 127v702q0 190 -99.5 270.5t-338.5 80.5q-211 0 -324 -90q-57 -47 -87 -120t-30 -186h326v13q6 86 27.5 126t97.5 40q47 0 74.5 -35t27.5 -84q0 -68 -49 -98.5t-157 -63.5 q-51 -14 -76 -23q-61 -20 -110.5 -46.5t-88.5 -70.5t-62.5 -111t-23.5 -161zM301 1298h281l350 304h-426zM377 326q0 53 20.5 88t55.5 59q25 18 92 49q43 20 71 35v-180q-2 -72 -27.5 -123t-90.5 -51q-57 0 -89 34t-32 89z" />
<glyph unicode="&#xe2;" d="M49 270q0 -137 81 -222t218 -85q92 0 153.5 33t127.5 106l22 -102h318q-27 76 -27 127v702q0 190 -99.5 270.5t-338.5 80.5q-211 0 -324 -90q-57 -47 -87 -120t-30 -186h326v13q6 86 27.5 126t97.5 40q47 0 74.5 -35t27.5 -84q0 -68 -49 -98.5t-157 -63.5 q-51 -14 -76 -23q-61 -20 -110.5 -46.5t-88.5 -70.5t-62.5 -111t-23.5 -161zM98 1257h301l115 154l113 -154h303l-248 304h-338zM377 326q0 53 20.5 88t55.5 59q25 18 92 49q43 20 71 35v-180q-2 -72 -27.5 -123t-90.5 -51q-57 0 -89 34t-32 89z" />
<glyph unicode="&#xe3;" d="M49 270q0 -137 81 -222t218 -85q92 0 153.5 33t127.5 106l22 -102h318q-27 76 -27 127v702q0 190 -99.5 270.5t-338.5 80.5q-211 0 -324 -90q-57 -47 -87 -120t-30 -186h326v13q6 86 27.5 126t97.5 40q47 0 74.5 -35t27.5 -84q0 -68 -49 -98.5t-157 -63.5 q-51 -14 -76 -23q-61 -20 -110.5 -46.5t-88.5 -70.5t-62.5 -111t-23.5 -161zM113 1257h161q6 37 31 63t60 26q29 0 108 -31l14 -6q94 -39 170 -39q115 0 179.5 76.5t76.5 195.5h-163q-2 -29 -29 -52.5t-57 -23.5q-33 0 -111 33q-6 2 -18 8q-51 18 -89 28.5t-81 10.5 q-59 0 -103.5 -24.5t-73 -65.5t-46 -90.5t-29.5 -108.5zM377 326q0 53 20.5 88t55.5 59q25 18 92 49q43 20 71 35v-180q-2 -72 -27.5 -123t-90.5 -51q-57 0 -89 34t-32 89z" />
<glyph unicode="&#xe4;" d="M49 270q0 -137 81 -222t218 -85q92 0 153.5 33t127.5 106l22 -102h318q-27 76 -27 127v702q0 190 -99.5 270.5t-338.5 80.5q-211 0 -324 -90q-57 -47 -87 -120t-30 -186h326v13q6 86 27.5 126t97.5 40q47 0 74.5 -35t27.5 -84q0 -68 -49 -98.5t-157 -63.5 q-51 -14 -76 -23q-61 -20 -110.5 -46.5t-88.5 -70.5t-62.5 -111t-23.5 -161zM131 1311h324v266h-324v-266zM377 326q0 53 20.5 88t55.5 59q25 18 92 49q43 20 71 35v-180q-2 -72 -27.5 -123t-90.5 -51q-57 0 -89 34t-32 89zM573 1311h324v266h-324v-266z" />
<glyph unicode="&#xe5;" d="M49 270q0 -137 81 -222t218 -85q92 0 153.5 33t127.5 106l22 -102h318q-27 76 -27 127v702q0 190 -99.5 270.5t-338.5 80.5q-211 0 -324 -90q-57 -47 -87 -120t-30 -186h326v13q6 86 27.5 126t97.5 40q47 0 74.5 -35t27.5 -84q0 -68 -49 -98.5t-157 -63.5 q-51 -14 -76 -23q-61 -20 -110.5 -46.5t-88.5 -70.5t-62.5 -111t-23.5 -161zM283 1511q0 -96 67.5 -163.5t163.5 -67.5q94 0 161.5 68.5t67.5 162.5t-67.5 162t-161.5 68t-162.5 -68t-68.5 -162zM377 326q0 53 20.5 88t55.5 59q25 18 92 49q43 20 71 35v-180 q-2 -72 -27.5 -123t-90.5 -51q-57 0 -89 34t-32 89zM408 1511q0 43 32.5 75t73.5 32t74 -33t33 -74t-32 -73.5t-75 -32.5t-74.5 31.5t-31.5 74.5z" />
<glyph unicode="&#xe6;" horiz-adv-x="1478" d="M41 825l2 -16v-21h326q0 84 27.5 130.5t99.5 46.5q53 0 83.5 -33t30.5 -86q0 -43 -23.5 -72t-66.5 -49q-33 -14 -108 -35q-29 -8 -50 -14q-174 -55 -246.5 -135t-72.5 -252q0 -152 88 -239t238 -87q113 0 209 27.5t157 95.5q33 -61 118 -92t171 -31q213 0 325.5 92 t112.5 285l-2 18v21h-325v-31q-2 -33 -4.5 -59.5t-11.5 -49t-28.5 -37t-54.5 -14.5q-59 0 -79.5 39t-24.5 109v168h541v264q0 205 -113 308.5t-320 103.5q-154 0 -264 -90q-53 45 -129 67.5t-151 22.5q-213 0 -334 -83.5t-121 -271.5zM371 322q0 61 18.5 97t52.5 58 q20 12 74 35q59 25 90 43v-90q0 -59 -3 -102.5t-15.5 -80t-39 -60t-69.5 -23.5q-59 0 -83.5 32t-24.5 91zM928 719v88q0 76 24.5 117t94.5 41q53 0 73.5 -33t26.5 -92v-121h-219z" />
<glyph unicode="&#xe7;" d="M100 319q0 -170 90.5 -254.5t249.5 -97.5l-94 -155l53 -50q39 20 86 21q33 -2 56.5 -20.5t25.5 -51.5q0 -37 -31.5 -56.5t-74.5 -19.5q-45 0 -129 27q-31 10 -47 14l-43 -94q86 -31 143 -44t127 -13q96 0 177 52t81 144q0 74 -57.5 114t-134.5 44q-53 0 -76 -10l-4 4 l61 94q14 0 33 2h20q113 12 195 66.5t113 157.5q12 43 19 126.5t7 145.5h-315v-33q2 -23 2 -47q0 -82 -20.5 -134t-82.5 -52q-57 0 -80.5 35.5t-23.5 97.5v473q0 66 20.5 102.5t77.5 36.5q66 0 88 -72q4 -25 9 -71q2 -39 4 -60l2 -20h307v31q2 18 2 26q0 207 -103.5 303.5 t-328.5 98.5q-199 0 -301.5 -90.5t-102.5 -303.5v-467z" />
<glyph unicode="&#xe8;" d="M78 319q0 -94 33.5 -162.5t94 -111.5t139.5 -62.5t171 -19.5q207 2 317.5 100.5t110.5 292.5l-2 21v20h-324q-2 -20 -2 -32q-2 -84 -21.5 -125t-90.5 -41q-51 2 -76 35.5t-25 84.5v201h551v328q0 88 -34.5 152.5t-95 103.5t-138.5 57.5t-170 18.5q-98 0 -178 -21.5 t-137.5 -66.5t-90 -121t-32.5 -185v-467zM94 1602l350 -304h281l-205 304h-426zM403 735v76q0 70 26 112t89 42q57 0 84 -38t27 -79v-113h-226z" />
<glyph unicode="&#xe9;" d="M78 319q0 -94 33.5 -162.5t94 -111.5t139.5 -62.5t171 -19.5q207 2 317.5 100.5t110.5 292.5l-2 21v20h-324q-2 -20 -2 -32q-2 -84 -21.5 -125t-90.5 -41q-51 2 -76 35.5t-25 84.5v201h551v328q0 88 -34.5 152.5t-95 103.5t-138.5 57.5t-170 18.5q-98 0 -178 -21.5 t-137.5 -66.5t-90 -121t-32.5 -185v-467zM301 1298h281l350 304h-426zM403 735v76q0 70 26 112t89 42q57 0 84 -38t27 -79v-113h-226z" />
<glyph unicode="&#xea;" d="M78 319q0 -94 33.5 -162.5t94 -111.5t139.5 -62.5t171 -19.5q207 2 317.5 100.5t110.5 292.5l-2 21v20h-324q-2 -20 -2 -32q-2 -84 -21.5 -125t-90.5 -41q-51 2 -76 35.5t-25 84.5v201h551v328q0 88 -34.5 152.5t-95 103.5t-138.5 57.5t-170 18.5q-98 0 -178 -21.5 t-137.5 -66.5t-90 -121t-32.5 -185v-467zM98 1257h301l115 154l113 -154h303l-248 304h-338zM403 735v76q0 70 26 112t89 42q57 0 84 -38t27 -79v-113h-226z" />
<glyph unicode="&#xeb;" d="M78 319q0 -94 33.5 -162.5t94 -111.5t139.5 -62.5t171 -19.5q207 2 317.5 100.5t110.5 292.5l-2 21v20h-324q-2 -20 -2 -32q-2 -84 -21.5 -125t-90.5 -41q-51 2 -76 35.5t-25 84.5v201h551v328q0 88 -34.5 152.5t-95 103.5t-138.5 57.5t-170 18.5q-98 0 -178 -21.5 t-137.5 -66.5t-90 -121t-32.5 -185v-467zM131 1311h324v266h-324v-266zM403 735v76q0 70 26 112t89 42q57 0 84 -38t27 -79v-113h-226zM573 1311h324v266h-324v-266z" />
<glyph unicode="&#xec;" horiz-adv-x="569" d="M-133 1602l350 -304h281l-205 304h-426zM123 0h326v1147h-326v-1147z" />
<glyph unicode="&#xed;" horiz-adv-x="569" d="M74 1298h280l351 304h-426zM123 0h326v1147h-326v-1147z" />
<glyph unicode="&#xee;" horiz-adv-x="569" d="M-152 1257h302l114 154l113 -154h303l-248 304h-338zM123 0h326v1147h-326v-1147z" />
<glyph unicode="&#xef;" horiz-adv-x="569" d="M-96 1311h323v266h-323v-266zM123 0h326v1147h-326v-1147zM346 1311h324v266h-324v-266z" />
<glyph unicode="&#xf0;" d="M86 319q0 -96 33 -163.5t91 -110.5t135 -62.5t167 -19.5q199 0 312.5 85t113.5 271v410q0 125 -27.5 227.5t-77 188.5t-105.5 155.5t-159 184.5l-4 4l146 98l-86 103l-156 -105l-133 133l-207 -145l129 -127l-164 -111l86 -102l174 117q127 -133 226 -271l-5 -4 q-27 25 -62.5 36t-90.5 11q-61 0 -120.5 -21.5t-109 -67.5t-78 -121.5t-28.5 -182.5v-410zM412 299v455q0 61 23.5 97t76.5 36t76.5 -36t23.5 -97v-455q0 -100 -100 -100t-100 100z" />
<glyph unicode="&#xf1;" d="M100 0h326v819q0 92 88 94q43 0 62.5 -25.5t23.5 -68.5v-819h326v940q0 113 -84 176.5t-207 63.5q-74 0 -138.5 -53.5t-88.5 -122.5h-5v143h-303v-1147zM113 1257h161q6 37 31 63t60 26q29 0 108 -31l14 -6q94 -39 170 -39q115 0 179.5 76.5t76.5 195.5h-163 q-2 -29 -29 -52.5t-57 -23.5q-33 0 -111 33q-6 2 -18 8q-51 18 -89 28.5t-81 10.5q-59 0 -103.5 -24.5t-73 -65.5t-46 -90.5t-29.5 -108.5z" />
<glyph unicode="&#xf2;" d="M86 319q0 -96 33 -163.5t91 -110.5t135 -62.5t167 -19.5q195 0 304.5 84t121.5 272v467q0 393 -426 394q-203 0 -314.5 -91.5t-111.5 -302.5v-467zM94 1602l350 -304h281l-205 304h-426zM412 299v512q0 61 23.5 97t76.5 36t76.5 -36t23.5 -97v-512q-10 -100 -100 -100 t-100 100z" />
<glyph unicode="&#xf3;" d="M86 319q0 -96 33 -163.5t91 -110.5t135 -62.5t167 -19.5q195 0 304.5 84t121.5 272v467q0 393 -426 394q-203 0 -314.5 -91.5t-111.5 -302.5v-467zM301 1298h281l350 304h-426zM412 299v512q0 61 23.5 97t76.5 36t76.5 -36t23.5 -97v-512q-10 -100 -100 -100t-100 100z " />
<glyph unicode="&#xf4;" d="M86 319q0 -96 33 -163.5t91 -110.5t135 -62.5t167 -19.5q195 0 304.5 84t121.5 272v467q0 393 -426 394q-203 0 -314.5 -91.5t-111.5 -302.5v-467zM98 1257h301l115 154l113 -154h303l-248 304h-338zM412 299v512q0 61 23.5 97t76.5 36t76.5 -36t23.5 -97v-512 q-10 -100 -100 -100t-100 100z" />
<glyph unicode="&#xf5;" d="M86 319q0 -96 33 -163.5t91 -110.5t135 -62.5t167 -19.5q195 0 304.5 84t121.5 272v467q0 393 -426 394q-203 0 -314.5 -91.5t-111.5 -302.5v-467zM113 1257h161q6 37 31 63t60 26q29 0 108 -31l14 -6q94 -39 170 -39q115 0 179.5 76.5t76.5 195.5h-163q-2 -29 -29 -52.5 t-57 -23.5q-33 0 -111 33q-6 2 -18 8q-51 18 -89 28.5t-81 10.5q-59 0 -103.5 -24.5t-73 -65.5t-46 -90.5t-29.5 -108.5zM412 299v512q0 61 23.5 97t76.5 36t76.5 -36t23.5 -97v-512q-10 -100 -100 -100t-100 100z" />
<glyph unicode="&#xf6;" d="M86 319q0 -96 33 -163.5t91 -110.5t135 -62.5t167 -19.5q195 0 304.5 84t121.5 272v467q0 393 -426 394q-203 0 -314.5 -91.5t-111.5 -302.5v-467zM131 1311h324v266h-324v-266zM412 299v512q0 61 23.5 97t76.5 36t76.5 -36t23.5 -97v-512q-10 -100 -100 -100t-100 100z M573 1311h324v266h-324v-266z" />
<glyph unicode="&#xf7;" d="M53 393h920v236h-920v-236zM350 14h326v236h-326v-236zM350 772h326v236h-326v-236z" />
<glyph unicode="&#xf8;" d="M-23 -55l142 -97l112 183q51 -35 124 -51.5t157 -16.5q195 0 304.5 84t121.5 272v467q0 129 -45 211l137 205l-147 94l-107 -176q-98 59 -264 60q-203 0 -314.5 -91.5t-111.5 -302.5v-467q0 -88 33 -165zM412 299v80l196 297h4v-377q-10 -100 -100 -100t-100 100z M412 510v301q0 61 23.5 97t76.5 36q59 0 79.5 -40t20.5 -105l-196 -289h-4z" />
<glyph unicode="&#xf9;" d="M94 205q0 -117 75 -179.5t216 -62.5q74 0 138.5 54.5t88.5 123.5h4v-141h304v1147h-326v-821q0 -92 -94 -97q-43 0 -59.5 26t-20.5 71v821h-326v-942zM94 1602l350 -304h281l-205 304h-426z" />
<glyph unicode="&#xfa;" d="M94 205q0 -117 75 -179.5t216 -62.5q74 0 138.5 54.5t88.5 123.5h4v-141h304v1147h-326v-821q0 -92 -94 -97q-43 0 -59.5 26t-20.5 71v821h-326v-942zM301 1298h281l350 304h-426z" />
<glyph unicode="&#xfb;" d="M94 205q0 -117 75 -179.5t216 -62.5q74 0 138.5 54.5t88.5 123.5h4v-141h304v1147h-326v-821q0 -92 -94 -97q-43 0 -59.5 26t-20.5 71v821h-326v-942zM98 1278h301l115 154l113 -154h303l-248 303h-338z" />
<glyph unicode="&#xfc;" d="M94 205q0 -117 75 -179.5t216 -62.5q74 0 138.5 54.5t88.5 123.5h4v-141h304v1147h-326v-821q0 -92 -94 -97q-43 0 -59.5 26t-20.5 71v821h-326v-942zM131 1311h324v266h-324v-266zM573 1311h324v266h-324v-266z" />
<glyph unicode="&#xfd;" horiz-adv-x="909" d="M12 1147l228 -1038l8 -33q12 -53 20 -93t8 -69q0 -27 -26.5 -43t-56.5 -16q-4 0 -9 2h-6q-20 4 -57 8h-6v-242q14 0 47 -4q49 -6 82 -6q111 0 181.5 30.5t111.5 85t62.5 122t49.5 188.5q18 82 31 127l207 981h-320l-112 -741h-4l-111 741h-328zM244 1298h280l350 304 h-425z" />
<glyph unicode="&#xfe;" d="M86 -387h326v496h4q51 -76 117.5 -111t119.5 -35q84 0 141.5 37t88 98.5t43 135t12.5 155.5v397q0 72 -14.5 141.5t-46 127t-86 91.5t-132.5 34q-84 0 -148.5 -40t-94.5 -108h-4v504h-326v-1923zM412 440v271q0 94 22.5 148t83.5 54q33 0 52.5 -18t28.5 -47t11 -57.5 t2 -65.5v-297q0 -41 -2 -71.5t-11 -60.5t-30.5 -48.5t-56.5 -18.5q-53 0 -76.5 61.5t-23.5 149.5z" />
<glyph unicode="&#xff;" horiz-adv-x="909" d="M12 1147l228 -1038l8 -33q12 -53 20 -93t8 -69q0 -27 -26.5 -43t-56.5 -16q-4 0 -9 2h-6q-20 4 -57 8h-6v-242q14 0 47 -4q49 -6 82 -6q111 0 181.5 30.5t111.5 85t62.5 122t49.5 188.5q18 82 31 127l207 981h-320l-112 -741h-4l-111 741h-328zM74 1311h323v266h-323 v-266zM516 1311h324v266h-324v-266z" />
<glyph unicode="&#x152;" horiz-adv-x="1593" d="M68 530q0 -115 13 -211t52 -177t112.5 -130t190.5 -49q92 0 165 43t114 125h4v-133h803v307h-480v332h451v307h-451v285h465v307h-782v-127h-4q-51 82 -129 123t-164 41q-111 0 -183.5 -50t-110.5 -133t-52 -178.5t-14 -201.5v-480zM428 461v592q0 51 4 88t17.5 71.5 t42 57t75.5 22.5l11 -2h12q70 -8 88 -59t18 -141v-633q0 -51 -3 -87t-17 -66t-43 -46t-80 -16q-80 0 -102.5 52t-22.5 167z" />
<glyph unicode="&#x153;" horiz-adv-x="1478" d="M72 395q0 -215 90 -323.5t315 -108.5q86 0 164 28.5t131 88.5q47 -55 116.5 -86t147.5 -31q221 0 323.5 106.5t102.5 325.5h-317v-14q-2 -37 -4 -63.5t-11.5 -54t-29 -46t-49.5 -18.5q-76 0 -97.5 48t-21.5 159v98h534v330q-6 164 -115.5 255t-283.5 91q-94 0 -159.5 -27 t-131.5 -94q-55 61 -136 91t-171 30q-215 0 -306 -109.5t-91 -320.5v-355zM397 301v537q0 47 27 76.5t76 29.5t74.5 -28.5t31.5 -77.5v-537q-10 -102 -106 -102q-103 0 -103 102zM932 719v45q2 80 10 117q12 84 113 84q53 -4 69.5 -47.5t16.5 -116.5v-82h-209z" />
<glyph unicode="&#x178;" horiz-adv-x="1138" d="M23 1536l362 -891v-645h360v645l371 891h-360l-185 -502h-4l-180 502h-364zM188 1700h324v266h-324v-266zM631 1700h323v266h-323v-266z" />
<glyph unicode="&#x2c6;" horiz-adv-x="681" d="M-74 1298h301l115 154l113 -154h303l-248 304h-338z" />
<glyph unicode="&#x2dc;" horiz-adv-x="681" d="M-59 1298h161q6 37 31 62.5t60 25.5q29 0 108 -30l14 -6q94 -39 170 -39q115 0 179.5 76.5t76.5 195.5h-163q-2 -29 -29 -52.5t-57 -23.5q-33 0 -111 33q-6 2 -19 8q-51 18 -88.5 28.5t-80.5 10.5q-59 0 -103.5 -24.5t-73 -65.5t-46 -90.5t-29.5 -108.5z" />
<glyph unicode="&#x2000;" />
<glyph unicode="&#x2001;" horiz-adv-x="2048" />
<glyph unicode="&#x2002;" />
<glyph unicode="&#x2003;" horiz-adv-x="2048" />
<glyph unicode="&#x2004;" horiz-adv-x="681" />
<glyph unicode="&#x2005;" horiz-adv-x="512" />
<glyph unicode="&#x2006;" horiz-adv-x="339" />
<glyph unicode="&#x2007;" horiz-adv-x="339" />
<glyph unicode="&#x2008;" horiz-adv-x="256" />
<glyph unicode="&#x2009;" horiz-adv-x="409" />
<glyph unicode="&#x200a;" horiz-adv-x="112" />
<glyph unicode="&#x2010;" horiz-adv-x="681" d="M88 485h508v308h-508v-308z" />
<glyph unicode="&#x2011;" horiz-adv-x="681" d="M88 485h508v308h-508v-308z" />
<glyph unicode="&#x2012;" horiz-adv-x="681" d="M88 485h508v308h-508v-308z" />
<glyph unicode="&#x2013;" d="M0 518h1024v236h-1024v-236z" />
<glyph unicode="&#x2014;" horiz-adv-x="2048" d="M0 518h2048v236h-2048v-236z" />
<glyph unicode="&#x2018;" horiz-adv-x="569" d="M127 932h324v328h-172q0 92 44 143t128 53v117q-158 -10 -241 -86t-83 -225v-330z" />
<glyph unicode="&#x2019;" horiz-adv-x="569" d="M119 895q158 12 240.5 87t82.5 224v330h-323v-328h172q0 -92 -44 -142t-128 -54v-117z" />
<glyph unicode="&#x201a;" horiz-adv-x="569" d="M123 2h172q0 -92 -44 -143.5t-128 -53.5v-116q158 10 240.5 85.5t82.5 225.5v330h-323v-328z" />
<glyph unicode="&#x201c;" d="M109 932h323v328h-172q0 92 44 143t128 53v117q-158 -10 -240.5 -86t-82.5 -225v-330zM600 932h324v328h-172q0 92 44 143t128 53v117q-158 -10 -241 -86t-83 -225v-330z" />
<glyph unicode="&#x201d;" d="M100 895q158 12 241 87t83 224v330h-324v-328h172q0 -92 -44 -142t-128 -54v-117zM592 895q158 12 240.5 87t82.5 224v330h-323v-328h172q0 -92 -44 -142t-128 -54v-117z" />
<glyph unicode="&#x201e;" d="M104 2h172q0 -92 -44 -143.5t-128 -53.5v-116q158 10 241 85.5t83 225.5v330h-324v-328zM598 2h172q0 -92 -44 -143.5t-128 -53.5v-116q158 10 241 85.5t83 225.5v330h-324v-328z" />
<glyph unicode="&#x2022;" horiz-adv-x="860" d="M45 768q0 -78 29.5 -148.5t82 -125t123 -84t148.5 -29.5t148.5 29.5t125 84t84 125t29.5 148.5t-29.5 147.5t-84 123t-125 83t-148.5 29.5t-148.5 -29.5t-123 -83t-82 -123t-29.5 -147.5z" />
<glyph unicode="&#x2026;" horiz-adv-x="2048" d="M168 0h346v350h-346v-350zM850 0h346v350h-346v-350zM1534 0h346v350h-346v-350z" />
<glyph unicode="&#x202f;" horiz-adv-x="409" />
<glyph unicode="&#x2039;" horiz-adv-x="569" d="M109 489l370 -237v266l-209 119l209 129v268l-370 -246v-299z" />
<glyph unicode="&#x203a;" horiz-adv-x="569" d="M90 252l371 237v299l-371 246v-268l209 -129l-209 -119v-266z" />
<glyph unicode="&#x205f;" horiz-adv-x="512" />
<glyph unicode="&#x2122;" horiz-adv-x="1761" d="M6 1356h234v-647h209v647h243v180h-686v-180zM782 709h191v647h4l229 -647h127l230 647h4v-647h190v827h-301l-184 -510h-4l-185 510h-301v-827z" />
<glyph unicode="&#xe000;" horiz-adv-x="1145" d="M0 1145h1145v-1145h-1145v1145z" />
<glyph unicode="&#xfb01;" horiz-adv-x="1251" d="M805 0h326v1147h-326v-1147zM805 1260h326v276h-326v-276zM39 909h131v-909h326v909h139v236h-139v117q0 20 19.5 29t49.5 9h70v236h-143q-164 0 -241 -65.5t-81 -225.5l-2 -100h-129v-236z" />
<glyph unicode="&#xfb02;" horiz-adv-x="1251" d="M805 0h326v1536h-326v-1536zM39 909h131v-909h326v909h139v236h-139v117q0 20 19.5 29t49.5 9h70v236h-143q-164 0 -241 -65.5t-81 -225.5l-2 -100h-129v-236z" />
<glyph unicode="&#xfb03;" horiz-adv-x="1933" d="M1487 0h326v1147h-326v-1147zM1487 1260h326v276h-326v-276zM721 909h131v-909h326v909h139v236h-139v117q0 20 19.5 29t49.5 9h70v236h-143q-164 0 -241 -65.5t-81 -225.5l-2 -100h-129v-236zM39 909h131v-909h326v909h139v236h-139v117q0 20 19.5 29t49.5 9h70v236 h-143q-164 0 -241 -65.5t-81 -225.5l-2 -100h-129v-236z" />
<glyph unicode="&#xfb04;" horiz-adv-x="1933" d="M1487 0h326v1536h-326v-1536zM721 909h131v-909h326v909h139v236h-139v117q0 20 19.5 29t49.5 9h70v236h-143q-164 0 -241 -65.5t-81 -225.5l-2 -100h-129v-236zM39 909h131v-909h326v909h139v236h-139v117q0 20 19.5 29t49.5 9h70v236h-143q-164 0 -241 -65.5 t-81 -225.5l-2 -100h-129v-236z" />
</font>
</defs>
</svg>
